# xmcd
#
# Track frame offsets:
#  150
#  18175
#  28900
#  39534
#  50535
#  64691
#  76869
#  88780
#  103070
#  116899
#  127929
#  143936
#
# Disc length: 2060 seconds
#
# Revision: 0
# Processed by: cddbd v1.5.2PL0 Copyright (c) Steve Scherf et al.
# Submitted via: AltoMP3 Maker 3.0
#
DISCID=9f080a0c
DTITLE=Rob Gill - Australia - Old Friends
DYEAR=1900
DGENRE=
TTITLE0=Remember
TTITLE1=Old Friends
TTITLE2=Little Miss Lonely
TTITLE3=Back of a Ute
TTITLE4=R 201
TTITLE5=Taken
TTITLE6=First Love
TTITLE7=Slow Music
TTITLE8=Angel
TTITLE9=Scars of Love
TTITLE10=Seperate Way's
TTITLE11=Too Soon To Know
EXTD=
EXTT0=
EXTT1=
EXTT2=
EXTT3=
EXTT4=
EXTT5=
EXTT6=
EXTT7=
EXTT8=
EXTT9=
EXTT10=
EXTT11=
PLAYORDER=
